PathFileType	4	(X/Y/Z)	OpenSim_Sub07_CSStiffKnee_Gyro.trc
DataRate	CameraRate	NumFrames	NumMarkers	Units	OrigDataRate	OrigDataStartFrame	OrigNumFrames
100	100	41	8	m	100	1684	6734
Frame#	Time	torso_imu_offset_imu	pelvis_imu_offset_imu	tibia_r_imu_offset_imu	femur_r_imu_offset_imu	tibia_l_imu_offset_imu	femur_l_imu_offset_imu	toes_r_imu_offset_imu	toes_l_imu_offset_imu
				X1	Y1	Z1	X2	Y2	Z2	X3	Y3	Z3	X4	Y4	Z4	X5	Y5	Z5	X6	Y6	Z6	X7	Y7	Z7	X8		Y8	Z8	

1684	16.83000000	0.36389762	-0.12911087	-0.16264684	-0.32087363	-0.00882428	0.07245315	0.86265242	-0.17227616	-0.90200874	-0.63804953	-1.36219047	1.72500758	-0.66877381	-0.09454020	0.51688657	-0.11086906	-0.44857101	0.80395326	1.47539814	-2.14315796	-1.45656480	-0.07419981	-0.07428132	0.13078551
1685	16.84000000	0.36989986	-0.13644157	-0.14911943	-0.25609227	0.02210917	0.12775424	0.48323699	0.09988392	-0.80947974	-0.32468570	-1.30959203	1.58052736	-0.38977323	-0.05655886	0.49677867	-0.17609144	-0.46594511	0.82200379	0.61457606	0.97780178	-1.50361351	-0.03280696	-0.07126924	0.10914507
1686	16.85000000	0.36465692	-0.13258663	-0.12873309	-0.20933020	0.05761204	0.19384007	0.07550445	0.18550135	-0.62014581	-0.31619135	-1.11583644	1.43135972	-0.23772494	-0.00632765	0.53146774	-0.16673605	-0.47033289	0.82062930	-0.55972892	2.16444026	-1.48675742	0.00128818	-0.06739671	0.09638264
1687	16.86000000	0.35057409	-0.11362641	-0.11423156	-0.16556074	0.08118761	0.24376527	-0.58195305	0.14168795	-0.28222605	-0.51198546	-0.94695680	1.33351934	-0.15371267	0.00083630	0.54507701	-0.13047543	-0.47293718	0.79006120	-0.83772489	2.48174778	-1.53393951	0.01014961	-0.08184565	0.09360039
1688	16.87000000	0.32284680	-0.09172399	-0.10450726	-0.12329186	0.10242449	0.28619209	-1.28978827	-0.01728188	0.24418247	-0.58828199	-0.77238819	1.33581667	-0.07037757	0.02461831	0.50617522	-0.11392416	-0.47416400	0.75812186	-0.74410532	2.31343499	-1.58844252	-0.01627604	-0.11310636	0.11800244
1689	16.88000000	0.29154317	-0.06752944	-0.10008024	-0.08478874	0.12598944	0.30846929	-2.00338741	-0.14241797	0.73350859	-0.31997961	-0.58841131	1.40314829	0.01464239	0.01032513	0.47235449	-0.07453818	-0.47925513	0.71211399	-0.61357469	2.25615411	-1.61031718	-0.00529023	-0.09284298	0.12738900
1690	16.89000000	0.26080893	-0.03663089	-0.10448861	-0.04746035	0.14323168	0.32281000	-2.32126203	-0.08804271	1.11312015	0.22529161	-0.46601988	1.45578163	0.03801397	0.01059285	0.50738761	0.03478060	-0.45310092	0.67151156	-0.58735611	2.35754866	-1.49786738	0.01823310	-0.12043105	0.13470282
1691	16.90000000	0.24564919	-0.00493587	-0.10771323	-0.00419887	0.14090345	0.33148843	-1.84708572	0.14401092	1.49805160	0.80359715	-0.39001316	1.44363008	0.06401409	0.03797965	0.50643994	0.17532745	-0.41349621	0.63157689	-0.62347732	2.58038823	-1.28366232	0.00793219	-0.10751927	0.13164594
1692	16.91000000	0.23275130	0.03266061	-0.09071179	0.03168379	0.12576062	0.33523003	-1.05739623	0.43707539	1.87186400	1.29624538	-0.27615988	1.38188602	0.08697125	0.04141413	0.50246702	0.27408826	-0.36395859	0.60659138	-0.60569426	2.81978338	-1.03059742	-0.00032684	-0.11921290	0.13414463
1693	16.92000000	0.22074079	0.07514839	-0.07682446	0.06017906	0.11775449	0.34328699	-0.52316515	0.72071736	2.16279069	1.62738414	-0.12163451	1.26977288	0.08336432	0.03160033	0.51274772	0.31486997	-0.33227527	0.60258678	-0.49593888	2.97042553	-0.74738703	0.00747678	-0.12184807	0.12427134
1694	16.93000000	0.20769754	0.11673275	-0.05223830	0.10149526	0.12510943	0.34008267	-0.25971669	0.95288403	2.42366658	1.82515915	0.02182086	1.12627106	0.05189652	0.04283407	0.54994574	0.30106326	-0.27999040	0.58631715	-0.33635934	3.00188673	-0.45222980	0.03914348	-0.13415806	0.12880977
1695	16.94000000	0.19307013	0.15815991	-0.03156895	0.14123922	0.14689331	0.33809954	-0.02642664	1.06124259	2.78321440	1.92956075	0.14054786	1.00621494	0.07414841	0.05998916	0.57146951	0.32856254	-0.26487211	0.53775191	-0.19218505	3.01590893	-0.15420434	0.03248837	-0.09896955	0.14383427
1696	16.95000000	0.17373585	0.19019412	-0.01339696	0.16671530	0.16053529	0.33763164	0.27218496	1.13518171	3.07966037	1.87296670	0.22393488	0.91252394	0.07499374	0.05947563	0.59420356	0.32665872	-0.24619935	0.52301136	-0.12289605	3.15025199	0.11451043	0.01358934	-0.13316121	0.16604994
1697	16.96000000	0.15426777	0.21009100	0.00265960	0.18341750	0.15837723	0.32758805	0.58489463	1.30381848	3.17891708	1.61470925	0.22516383	0.85705282	0.13203942	0.06816094	0.58718977	0.32935071	-0.24095297	0.51453892	-0.15169161	3.43047390	0.31882201	-0.02539360	-0.12589081	0.19148349
1698	16.97000000	0.13020974	0.22148278	0.01527835	0.19592205	0.16682039	0.31988396	0.84141163	1.47874666	3.18914643	1.22380614	0.09938487	0.79878756	0.15002979	0.07485871	0.60547339	0.31805829	-0.23723836	0.51185256	-0.26763229	3.79156801	0.47163352	-0.02584423	-0.10552610	0.19796794
1699	16.98000000	0.11266951	0.23029077	0.02427086	0.19727160	0.19450710	0.31352528	1.07673530	1.59429653	3.16782724	0.81581721	-0.07828898	0.72761920	0.13347468	0.08680731	0.63392572	0.30440157	-0.22317581	0.49686936	-0.40792564	4.09267754	0.59330271	-0.01529321	-0.07609336	0.19033813
1700	16.99000000	0.09276909	0.23497580	0.03511806	0.18822453	0.21700430	0.31716818	1.34303571	1.71942309	3.11993343	0.44281708	-0.20319693	0.61846093	0.07733716	0.10027652	0.64070901	0.25417161	-0.24598860	0.45755011	-0.48280567	4.20881981	0.68769755	-0.02870360	-0.09250519	0.19225954
1701	17	0.08011189	0.23396218	0.04422538	0.15942403	0.22245465	0.32275461	1.56229197	1.89482215	3.18572200	0.08984789	-0.27083123	0.51744351	0.05597114	0.09493554	0.64339737	0.19600047	-0.26161813	0.45382094	-0.46388850	4.20911237	0.77115333	-0.04356355	-0.08658093	0.21118540
1702	17.01000000	0.06787536	0.22823436	0.05608606	0.12642470	0.21811610	0.31222002	1.78857469	2.16164215	3.35019655	-0.22815694	-0.28176708	0.43729071	0.05564224	0.09452746	0.66992684	0.16093289	-0.27520190	0.47544353	-0.38875255	4.18450921	0.82603711	-0.04480318	-0.07319880	0.21406787
1703	17.02000000	0.05836626	0.22239635	0.06266266	0.10502414	0.20460198	0.31031159	2.14020032	2.44085602	3.58732452	-0.48032798	-0.25223916	0.33203624	0.06966077	0.11731954	0.69863328	0.12840052	-0.24638193	0.50504316	-0.31687321	4.16547224	0.88290608	-0.01761218	-0.08191895	0.21193047
1704	17.03000000	0.05400415	0.21385393	0.06088828	0.08119835	0.19801805	0.30064837	2.29595576	2.62898795	3.79081239	-0.68748309	-0.17274636	0.20225885	0.09104651	0.12405134	0.68910729	0.12108670	-0.26637072	0.50042518	-0.23202221	4.09110953	0.98116003	-0.01415695	-0.08833576	0.22269958
1705	17.04000000	0.04103747	0.20436432	0.06461152	0.05718809	0.17253873	0.28472478	1.95995513	2.81483796	3.78832320	-0.86851490	-0.01090347	0.07234379	0.14011192	0.13700246	0.67157160	0.05867782	-0.28475751	0.50591482	-0.31165331	3.96815968	1.03161479	-0.05553042	-0.12221516	0.25232797
1706	17.05000000	0.03038136	0.18872865	0.06772550	0.04685859	0.10554603	0.25372587	1.30028045	2.92417083	3.64684913	-0.93832178	0.16436324	-0.05648235	0.17267697	0.14963786	0.66941221	0.01842674	-0.29927254	0.50403830	-0.62836828	3.85879970	0.80279928	-0.05271928	-0.14357660	0.26848837
1707	17.06000000	0.03273312	0.16785399	0.06127036	0.05870695	0.02339771	0.21206161	0.39435086	2.91874318	3.42258523	-0.87632423	0.14683711	-0.22225440	0.14034979	0.15922401	0.70210845	-0.00672431	-0.30208257	0.52306402	-0.71730301	3.83648225	0.34358888	-0.05923843	-0.16729129	0.28799963
1708	17.07000000	0.03299799	0.15260435	0.06017789	0.09087988	-0.04597163	0.17340988	-0.36354939	2.79162099	3.20798496	-0.89921830	-0.04851077	-0.39351339	0.13725257	0.18868742	0.70757871	-0.00931864	-0.30673380	0.52517566	-0.66916246	3.85520144	-0.20481790	-0.04774678	-0.15998505	0.30306793
1709	17.08000000	0.03700223	0.14493570	0.05886099	0.11972708	-0.09191994	0.13823878	-0.89320279	2.54671193	3.00228942	-0.91063390	-0.22273585	-0.56126356	0.14838645	0.20022789	0.70608774	-0.06681951	-0.32216075	0.54337108	-0.62042555	3.80748516	-0.64392193	-0.08209084	-0.21262385	0.32730314
1710	17.09000000	0.02073296	0.14025037	0.06374158	0.14941139	-0.09821201	0.11004089	-1.12501977	2.24335058	2.80569446	-0.69184771	-0.26162839	-0.71158153	0.17003465	0.20250899	0.71446500	-0.13243046	-0.34098143	0.55254951	-0.60256632	3.75604919	-0.87545746	-0.11160028	-0.22397979	0.35648363
1711	17.10000000	-0.00379840	0.13709113	0.06289817	0.18567480	-0.10417546	0.09864411	-1.24538595	1.96871317	2.60508738	-0.27729942	-0.22900061	-0.77608463	0.15574469	0.21246054	0.76666734	-0.12638896	-0.39123640	0.48671957	-0.55012139	3.77207663	-0.89501819	-0.11744155	-0.26457961	0.38922321
1712	17.11000000	-0.03230902	0.12580026	0.06015841	0.21138220	-0.13373472	0.10063990	-1.29812249	1.75695154	2.38429919	0.06060979	-0.24070948	-0.69693482	0.14005957	0.24107806	0.81289332	-0.15202035	-0.38957479	0.47734469	-0.43741027	3.77050080	-0.73859919	-0.14741928	-0.26140183	0.39284079
1713	17.12000000	-0.04873273	0.10583510	0.05707489	0.22836198	-0.16076140	0.10932771	-1.26380385	1.50272847	2.23008058	0.16046252	-0.28354681	-0.56458473	0.13992252	0.27191267	0.85414073	-0.15178361	-0.37949380	0.43776890	-0.30822964	3.63812755	-0.46265059	-0.08557481	-0.34454781	0.38256976
1714	17.13000000	-0.05239377	0.08105661	0.05669013	0.24248377	-0.18018054	0.13233077	-1.13177320	1.21518361	1.93091688	0.13941447	-0.24956865	-0.49982349	0.19626727	0.29734970	0.88899716	-0.15433834	-0.35712142	0.40641440	-0.19479878	3.36291417	-0.12277958	-0.04363337	-0.41518410	0.40209389
1715	17.14000000	-0.05755195	0.05405966	0.05766723	0.24826098	-0.20403415	0.14729600	-0.92635228	0.93897521	1.64186025	0.15454800	-0.14515984	-0.51284431	0.20007999	0.31318474	0.99396027	-0.10534963	-0.34721292	0.33978225	-0.14668992	3.00576718	0.21648701	-0.11974853	-0.48549286	0.41694688
1716	17.15000000	-0.06080701	0.01863786	0.05768688	0.25329766	-0.22194344	0.15845646	-0.60466199	0.73001655	1.32817873	0.23817184	-0.04228011	-0.56497098	0.23497309	0.35497195	1.09747025	-0.05627400	-0.28654586	0.31404459	-0.14467605	2.65159016	0.53184082	-0.06877810	-0.56657524	0.43511144
1717	17.16000000	-0.06578961	-0.02386303	0.05716961	0.26709065	-0.21059082	0.17402529	-0.13788820	0.56758384	0.98144074	0.36941716	-0.00203678	-0.62104208	0.24690348	0.39113203	1.17920382	0.04556631	-0.22393622	0.33532595	-0.30481007	2.03085669	0.81638097	-0.07855955	-0.64045595	0.44606076
1718	17.17000000	-0.07528258	-0.06292256	0.06283311	0.27951458	-0.18979708	0.18441977	0.45448639	0.38487184	0.70986305	0.38563153	-0.05805153	-0.66557317	0.27679996	0.41146639	1.25817726	0.14870041	-0.18182296	0.31840599	0.33293923	0.59260339	0.82898859	-0.14735079	-0.77111926	0.45803830
1719	17.18000000	-0.08672050	-0.10302263	0.06846193	0.22676393	-0.15341244	0.19404663	1.03380607	0.13199028	0.49938687	0.25163343	-0.10009607	-0.69588956	0.30266623	0.42426006	1.34398058	0.24035649	-0.05087427	0.29225975	1.88302960	-1.78502053	0.43524323	-0.12816307	-0.91185195	0.47171310
1720	17.19000000	-0.09406147	-0.15130018	0.07398892	0.14763225	-0.10679474	0.16536560	1.24925663	-0.20987251	0.11378533	-0.01138919	-0.19660337	-0.64376568	0.25814286	0.46960749	1.43561545	0.35073819	0.07784367	0.27664974	1.16220710	-3.73623252	0.51701138	-0.13056047	-1.15412077	0.47300004
1721	17.20000000	-0.08079280	-0.21898903	0.07553110	0.12901718	-0.02244347	0.10757773	1.51695599	-0.51229821	-0.83508665	-0.15907720	-0.59594605	-0.39249113	0.26803497	0.51771703	1.51943873	0.36831281	0.19186242	0.26761343	-0.10537920	-3.42648814	0.80446853	-0.11283118	-1.32825203	0.44475581
1722	17.21000000	-0.02814735	-0.27609641	0.07253462	0.11390484	0.06018972	0.05659685	2.61825926	-0.97646623	-1.59143333	0.03491546	-1.29968084	-0.00344733	0.39147576	0.54369350	1.62026654	0.32751167	0.24091853	0.31436384	0.28126862	-2.53520821	0.19217405	-0.04084635	-1.59375982	0.37991736
1723	17.22000000	0.02724290	-0.29931533	0.07726863	0.02137559	0.09805208	0.02110014	2.34941921	-1.56086117	-1.43225098	0.16672687	-1.47106403	0.27918293	0.51066134	0.59469890	1.68920963	0.23222461	0.24193733	0.23912014	0.64507954	-1.33142997	-0.30827852	0.02317884	-1.91045168	0.26954516
1724	17.23000000	0.02747316	-0.29530033	0.07080116	-0.08758888	0.06275517	0.00114623	-0.59683845	-1.60562228	-1.28594589	0.06670757	-0.54276881	0.20432280	0.52540804	0.65743394	1.78562245	0.06557530	0.32879223	0.10011913	1.03767639	-1.41871809	-0.23617697	0.10978285	-2.25924863	0.17970868
